<svg width="12" height="11" viewBox="0 0 12 11" fill="none" xmlns="http://www.w3.org/2000/svg">
<path d="M5.33431 1.04895C5.54431 0.404255 6.45641 0.404255 6.66571 1.04895L7.41471 3.35335C7.46047 3.4937 7.54942 3.61598 7.66886 3.70273C7.78829 3.78948 7.93209 3.83625 8.07971 3.83635H10.5031C11.1814 3.83635 11.4628 4.70435 10.9147 5.10335L8.95471 6.52715C8.83503 6.61398 8.74591 6.73646 8.70014 6.87705C8.65437 7.01764 8.65428 7.16912 8.69991 7.30975L9.44891 9.61415C9.65891 10.2589 8.92041 10.7958 8.37091 10.3968L6.41091 8.97295C6.29135 8.88616 6.1474 8.83941 5.99966 8.83941C5.85192 8.83941 5.70796 8.88616 5.58841 8.97295L3.62841 10.3968C3.07961 10.7958 2.34181 10.2589 2.55111 9.61415L3.30011 7.30975C3.34573 7.16912 3.34565 7.01764 3.29987 6.87705C3.2541 6.73646 3.16498 6.61398 3.04531 6.52715L1.08601 5.10405C0.537906 4.70505 0.820006 3.83705 1.49761 3.83705H3.92031C4.06804 3.83709 4.212 3.79039 4.33157 3.70363C4.45115 3.61688 4.54021 3.49451 4.58601 3.35405L5.33501 1.04965L5.33431 1.04895Z" fill="#E6E6E6"/>
</svg>
